<svg xmlns="http://www.w3.org/2000/svg" viewBox="0 0 1657.2205810546875 267.888916015625"><path d="M741.88 20.89L741.94 21.64L741.95 21.64L741.88 20.89ZM0 267.89C0.46 268.48 0.46 268.48 0.46 268.48C0.46 268.48 0.47 268.48 0.47 268.47C0.48 268.47 0.49 268.46 0.51 268.44C0.54 268.42 0.59 268.38 0.66 268.33C0.79 268.23 0.99 268.08 1.25 267.87C1.78 267.47 2.58 266.87 3.64 266.09C5.76 264.53 8.92 262.22 13.12 259.28C21.52 253.4 34.05 244.95 50.54 234.71C83.52 214.22 132.38 186.54 195.85 157.8C322.79 100.33 508.17 38.61 741.94 21.64L741.88 20.89L741.83 20.14C507.86 37.13 322.3 98.9 195.23 156.44C131.69 185.21 82.78 212.91 49.75 233.43C33.23 243.69 20.68 252.15 12.26 258.05C8.05 261 4.87 263.31 2.75 264.88C1.68 265.67 0.88 266.27 0.35 266.68C0.08 266.88 -0.12 267.04 -0.26 267.14C-0.32 267.19 -0.37 267.23 -0.41 267.26C-0.43 267.27 -0.44 267.28 -0.45 267.29C-0.45 267.29 -0.45 267.29 -0.46 267.29C-0.46 267.3 -0.46 267.3 0 267.89ZM741.88 20.89L741.95 21.64C1000.08 -1.86 1228.89 -1.86 1393.15 4.01C1475.29 6.95 1541.29 11.36 1586.75 15.03C1609.48 16.86 1627.08 18.51 1638.99 19.71C1644.95 20.3 1649.49 20.79 1652.53 21.12C1654.06 21.28 1655.21 21.41 1655.98 21.5C1656.36 21.54 1656.65 21.58 1656.84 21.6C1656.94 21.61 1657.01 21.62 1657.06 21.63C1657.08 21.63 1657.1 21.63 1657.11 21.63C1657.12 21.63 1657.13 21.63 1657.13 21.63C1657.13 21.63 1657.13 21.63 1657.22 20.89C1657.31 20.14 1657.31 20.14 1657.3 20.14C1657.3 20.14 1657.3 20.14 1657.29 20.14C1657.28 20.14 1657.26 20.14 1657.23 20.14C1657.19 20.13 1657.11 20.12 1657.02 20.11C1656.82 20.09 1656.53 20.05 1656.14 20.01C1655.37 19.92 1654.22 19.79 1652.7 19.63C1649.64 19.29 1645.1 18.81 1639.14 18.21C1627.22 17.02 1609.61 15.37 1586.87 13.53C1541.39 9.86 1475.37 5.45 1393.21 2.51C1228.89 -3.36 1000.03 -3.36 741.81 20.14L741.88 20.89Z" fill="#dbd0ed" fill-opacity="0.800000011920929"/></svg>
