<svg xmlns="http://www.w3.org/2000/svg" viewBox="0 0 1656.9549560546875 286.5"><path d="M0 286.5C0.47 287.08 0.47 287.08 0.47 287.08C0.47 287.08 0.48 287.08 0.48 287.08C0.49 287.07 0.5 287.06 0.51 287.05C0.54 287.03 0.58 287 0.63 286.96C0.73 286.87 0.89 286.75 1.11 286.58C1.54 286.24 2.18 285.74 3.05 285.09C4.78 283.78 7.38 281.85 10.88 279.38C17.87 274.44 28.42 267.32 42.65 258.62C71.13 241.24 114.34 217.55 173.26 192.39C291.12 142.08 471.86 85.85 723.32 62.25L723.25 61.5L723.18 60.75C471.56 84.37 290.67 140.64 172.68 191.01C113.68 216.2 70.4 239.92 41.87 257.34C27.61 266.05 17.03 273.19 10.01 278.16C6.5 280.64 3.88 282.58 2.14 283.89C1.27 284.55 0.62 285.06 0.18 285.4C-0.03 285.57 -0.2 285.7 -0.31 285.78C-0.36 285.83 -0.4 285.86 -0.43 285.88C-0.44 285.89 -0.45 285.9 -0.46 285.91C-0.46 285.91 -0.47 285.91 -0.47 285.91C-0.47 285.92 -0.47 285.92 0 286.5ZM723.25 61.5L723.32 62.25C974.83 38.64 1134.25 37.39 1267.8 34.98C1401.36 32.57 1509.07 29 1657.1 0.74L1656.95 0L1656.81 -0.74C1508.91 27.5 1401.31 31.07 1267.77 33.48C1134.22 35.89 974.75 37.14 723.18 60.75L723.25 61.5Z" fill="#dbd0ed" fill-opacity="0.800000011920929"/></svg>
